<svg xmlns="http://www.w3.org/2000/svg" width="49" height="49" viewBox="0 0 49 49"><defs><style>.a{fill:#fff;stroke:#e2e2e2;}.b{fill:#dbdbdb;}.c{stroke:none;}.d{fill:none;}</style></defs><g transform="translate(-1598 -979)"><g class="a" transform="translate(1598 979)"><circle class="c" cx="24.5" cy="24.5" r="24.5"/><circle class="d" cx="24.5" cy="24.5" r="24"/></g><path class="b" d="M27.146,17.123v0a.864.864,0,0,0-.273-.63h0l-5.359-5.25,0,0A.9.9,0,0,0,20.893,11a.884.884,0,0,0-.893.875.865.865,0,0,0,.311.664l4.68,4.584L20.25,21.767h0a.863.863,0,0,0-.25.607.884.884,0,0,0,.893.875.9.9,0,0,0,.62-.245h0l5.359-5.25h0a.864.864,0,0,0,.273-.63Z" transform="translate(1599.948 986.885)"/></g></svg>