<svg xmlns="http://www.w3.org/2000/svg" width="49" height="49" viewBox="0 0 49 49"><defs><style>.a{fill:#fff;stroke:#e2e2e2;}.b{fill:#dbdbdb;}.c{stroke:none;}.d{fill:none;}</style></defs><g class="a"><circle class="c" cx="24.5" cy="24.5" r="24.5"/><circle class="d" cx="24.5" cy="24.5" r="24"/></g><path class="b" d="M20,17.123v0a.864.864,0,0,1,.273-.63h0l5.359-5.25,0,0A.9.9,0,0,1,26.253,11a.884.884,0,0,1,.893.875.865.865,0,0,1-.311.664l-4.68,4.584L26.9,21.767h0a.863.863,0,0,1,.25.607.884.884,0,0,1-.893.875.9.9,0,0,1-.62-.245h0l-5.359-5.25h0a.864.864,0,0,1-.273-.63Z" transform="translate(-0.094 7.885)"/></svg>