<svg xmlns="http://www.w3.org/2000/svg" width="17" height="32" viewBox="0 0 17 32"><defs><style>.a{fill:#fff;}</style></defs><g transform="translate(0)"><path class="a" d="M16.472,20.1h-1.8V14.779a5.259,5.259,0,0,0-1.349-3.528,5.137,5.137,0,0,0-1.972-1.36,5.794,5.794,0,0,0,1.714-4.126A5.725,5.725,0,0,0,7.392,0,5.725,5.725,0,0,0,1.721,5.765,5.794,5.794,0,0,0,3.431,9.887,5.236,5.236,0,0,0,.194,13.749a.626.626,0,0,0,.484.737A.607.607,0,0,0,.8,14.5a.619.619,0,0,0,.6-.5,3.963,3.963,0,0,1,3.073-3.113l1.156,2.088a1.98,1.98,0,0,0,1.755,1.052h0a1.979,1.979,0,0,0,1.754-1.048l1.149-2.092a3.935,3.935,0,0,1,3.147,3.9V20.1H11.657V18.9a.616.616,0,1,0-1.233,0v1.2H4.34V16.459a.616.616,0,1,0-1.233,0v3.216a.89.89,0,1,1-1.781,0v-.842a.622.622,0,0,0-.616-.626.622.622,0,0,0-.617.626v.842a2.143,2.143,0,0,0,2.123,2.158,2.083,2.083,0,0,0,.89-.2v9.74A.622.622,0,0,0,3.723,32h7.31a.621.621,0,0,0,.616-.626V27.6h4.493a.622.622,0,0,0,.616-.626V24.406a.627.627,0,0,0,.329-.554V20.727A.621.621,0,0,0,16.472,20.1ZM2.953,5.765A4.481,4.481,0,0,1,7.392,1.253a4.481,4.481,0,0,1,4.439,4.511,4.481,4.481,0,0,1-4.439,4.512A4.481,4.481,0,0,1,2.953,5.765Zm4.434,7h0a.766.766,0,0,1-.68-.409L6.174,11.4a5.609,5.609,0,0,0,2.42,0l-.529.964A.765.765,0,0,1,7.387,12.768Zm8.468,8.586v1.872h-1.14v-.256a.617.617,0,1,0-1.233,0v.256H8.961v-.256a.617.617,0,1,0-1.233,0v.256H6.588V21.354Zm-11.515,0H5.355v2.5a.627.627,0,0,0,.329.554v2.571A.622.622,0,0,0,6.3,27.6h.461v3.143H4.34Zm6.077,9.393H7.995V27.6h2.422Zm-3.5-4.4V24.479h.811v.454a.617.617,0,1,0,1.233,0v-.454h4.52v.454a.616.616,0,1,0,1.233,0v-.454h.812v1.872Zm0,0" transform="translate(-0.088)"/><path class="a" d="M.056,252.325a.617.617,0,0,0,.572.392.608.608,0,0,0,.231-.046.63.63,0,0,0,.34-.816l-.011-.028a.613.613,0,0,0-.8-.346.63.63,0,0,0-.34.816Zm0,0" transform="translate(0 -235.72)"/><path class="a" d="M167.944,252.325a.617.617,0,0,0,.572.392.608.608,0,0,0,.231-.046.63.63,0,0,0,.34-.816l-.011-.028a.613.613,0,0,0-.8-.346.63.63,0,0,0-.34.816Zm0,0" transform="translate(-157.565 -235.72)"/></g></svg>