<svg xmlns="http://www.w3.org/2000/svg" width="34" height="32" viewBox="0 0 34 32"><defs><style>.a{fill:#fff;}</style></defs><path class="a" d="M33.33,3.321H12.756A5.838,5.838,0,0,0,1.651,5.791a5.753,5.753,0,0,0,1.715,4.1,5.29,5.29,0,0,0-1.979,1.35A5.217,5.217,0,0,0,0,14.782v4.884a2.21,2.21,0,0,0,3.077,2.016V23.92a.67.67,0,0,0,1.34,0V21.38h6.124V30.67H8.149v-6.35a.67.67,0,0,0-1.34,0v6.35H4.417V29.185a.67.67,0,0,0-1.34,0v2.15a.668.668,0,0,0,.67.665h7.464a.668.668,0,0,0,.67-.665V25.241H33.33a.668.668,0,0,0,.67-.665V3.986A.667.667,0,0,0,33.33,3.321ZM2.991,5.791a4.492,4.492,0,1,1,4.492,4.46A4.481,4.481,0,0,1,2.991,5.791ZM4.417,20.05V16.458a.67.67,0,0,0-1.34,0v3.208a.868.868,0,0,1-1.737,0V14.782a3.911,3.911,0,0,1,3.4-3.884,5.817,5.817,0,0,0,2.076.645v2.664a.67.67,0,0,0,1.34,0V11.543A5.823,5.823,0,0,0,10.9,10.48h7.653a.851.851,0,1,1,0,1.7H13.308a2.754,2.754,0,0,0-2.76,2.741V20.05H4.417ZM32.66,23.911H11.881v-3.1a.659.659,0,0,0,.007-.1V14.923a1.417,1.417,0,0,1,1.42-1.41h5.244a2.181,2.181,0,1,0,0-4.362H12.23a5.755,5.755,0,0,0,.971-4.5H32.66Zm0,0"/><path class="a" d="M226.42,97.209h1.925a.665.665,0,1,0,0-1.33H226.42a.665.665,0,1,0,0,1.33Zm0,0" transform="translate(-210.759 -89.557)"/><path class="a" d="M361.006,102.783h5.614a.668.668,0,0,0,.67-.665V96.544a.667.667,0,0,0-.67-.665h-5.614a.667.667,0,0,0-.67.665v5.574A.667.667,0,0,0,361.006,102.783Zm.67-5.574h4.274v4.244h-4.274Zm0,0" transform="translate(-336.407 -89.557)"/><path class="a" d="M294.3,96.592a.672.672,0,0,0,.872.367.664.664,0,0,0,.37-.866l-.012-.03a.672.672,0,0,0-.872-.367.664.664,0,0,0-.37.866Zm0,0" transform="translate(-274.695 -89.341)"/><path class="a" d="M46.389,393.758a.669.669,0,0,0,1.242-.5l-.012-.03a.672.672,0,0,0-.872-.367.664.664,0,0,0-.37.866Zm0,0" transform="translate(-43.251 -366.911)"/><path class="a" d="M201.239,219.61l-2.258,2.537h-.708a2.223,2.223,0,1,0,0,1.33h1.01a.672.672,0,0,0,.5-.225l2.177-2.446,1.244.358a.673.673,0,0,0,.535-.071l3.06-1.851,1.15.843a2.194,2.194,0,0,0-.187.889,2.235,2.235,0,1,0,1.07-1.9l-1.6-1.173a.675.675,0,0,0-.747-.033l-3.192,1.932-1.368-.394A.673.673,0,0,0,201.239,219.61Zm-5.1,4.094a.892.892,0,1,1,.9-.892A.9.9,0,0,1,196.137,223.7Zm14.764-2.729a.9.9,0,1,1-.9-.892A.9.9,0,0,1,210.9,220.976Zm0,0" transform="translate(-181.022 -203.418)"/><path class="a" d="M366.619,318.434h-5.614a.665.665,0,1,0,0,1.33h5.614a.665.665,0,1,0,0-1.33Zm0,0" transform="translate(-336.407 -297.436)"/></svg>