<svg xmlns="http://www.w3.org/2000/svg" width="32" height="32.002" viewBox="0 0 32 32.002"><defs><style>.a{fill:#fff;}</style></defs><g transform="translate(-1244 -2855)"><path class="a" d="M15.643,113.337l-4.051-2.78a2.488,2.488,0,0,0-3.155.265A11.6,11.6,0,0,1,6.2,107a11.447,11.447,0,0,1-.643-4.359,2.473,2.473,0,0,0,2.65-1.723l1.557-5.041a1.816,1.816,0,0,0-.695-2.021,4.706,4.706,0,0,0-.736-.435,4.991,4.991,0,0,0-6.506,2.031l-.005.01c-.037.07-.075.14-.111.214s-.067.142-.1.212h0a11.589,11.589,0,0,0-.519,1.282l-.036.1A18.687,18.687,0,0,0,.01,101.78c-.236,7.3,3.432,13.716,9.572,16.746.07.036.139.072.212.107a5.072,5.072,0,0,0,2.175.489,4.944,4.944,0,0,0,.825-.069,5.035,5.035,0,0,0,2.647-1.335,5.27,5.27,0,0,0,.767-.95,2.888,2.888,0,0,0,.5-1.271A2.478,2.478,0,0,0,15.643,113.337Zm-.2,2.047a1.743,1.743,0,0,1-.308.718,4.031,4.031,0,0,1-.585.727,3.731,3.731,0,0,1-4.2.68c-.062-.03-.121-.061-.181-.091l-.011-.006c-5.695-2.808-9.1-8.782-8.876-15.591a17.853,17.853,0,0,1,.973-4.132l.037-.1a10.4,10.4,0,0,1,.473-1.17l0-.011,0-.006c.026-.058.053-.116.082-.176s.06-.116.09-.172a3.708,3.708,0,0,1,4.832-1.5,3.4,3.4,0,0,1,.538.318l.009.006a.577.577,0,0,1,.222.643l-1.557,5.041a1.207,1.207,0,0,1-1.317.84l-.018,0a1.213,1.213,0,0,0-.927.258,1.178,1.178,0,0,0-.436.85A12.674,12.674,0,0,0,5,107.41a12.835,12.835,0,0,0,2.514,4.271,1.232,1.232,0,0,0,.885.41,1.259,1.259,0,0,0,.926-.369l.014-.014a1.2,1.2,0,0,1,1.529-.125l4.052,2.78A1.236,1.236,0,0,1,15.441,115.383Zm0,0" transform="translate(1244 2767.878)"/><path class="a" d="M406.039,294.45l-.012,0a.638.638,0,0,0-.791.422.624.624,0,0,0,.429.777l.012,0a.647.647,0,0,0,.181.026.635.635,0,0,0,.61-.448A.624.624,0,0,0,406.039,294.45Zm0,0" transform="translate(864.55 2578.98)"/><path class="a" d="M210.818,4.41h-4.447a3.915,3.915,0,0,0,.028-.467,4.011,4.011,0,0,0-8.021,0,3.915,3.915,0,0,0,.028.467h-4.817a1.263,1.263,0,0,0-1.272,1.251V18.4a1.263,1.263,0,0,0,1.272,1.251h2.647l1.89,1.98a1.285,1.285,0,0,0,.928.395h.016a1.285,1.285,0,0,0,.934-.419l1.774-1.957h2.186a.626.626,0,1,0,0-1.251h-2.186a1.284,1.284,0,0,0-.95.419l-1.774,1.957-1.89-1.98a1.288,1.288,0,0,0-.928-.395h-2.647V5.661h5.19a3.945,3.945,0,0,0,.58.864,3.574,3.574,0,0,0-2.06,3.239v3.161a1.63,1.63,0,0,0,1.642,1.614,1.651,1.651,0,0,0,.967-.311h4.961a1.653,1.653,0,0,0,.967.311,1.63,1.63,0,0,0,1.642-1.614V9.763a3.552,3.552,0,0,0-.959-2.427,3.657,3.657,0,0,0-1.1-.809A3.951,3.951,0,0,0,206,5.661h4.82V18.4h-1.786a.626.626,0,1,0,0,1.251h1.786a1.263,1.263,0,0,0,1.272-1.251V5.661A1.263,1.263,0,0,0,210.818,4.41Zm-8.429-3.159a2.718,2.718,0,0,1,2.738,2.692,2.739,2.739,0,0,1-5.476,0A2.719,2.719,0,0,1,202.389,1.251Zm3.817,8.512v3.161a.37.37,0,0,1-.739,0,.593.593,0,0,0,0-.076v-2a.636.636,0,0,0-1.272,0v2.13h-3.607v-2.13a.636.636,0,0,0-1.272,0v2.077a.37.37,0,0,1-.739,0V9.763a2.343,2.343,0,0,1,1.988-2.312,4.028,4.028,0,0,0,1.193.385V9.391a.636.636,0,0,0,1.272,0V7.837a4.027,4.027,0,0,0,1.194-.385A2.343,2.343,0,0,1,206.206,9.763Zm0,0" transform="translate(1063.909 2855)"/><path class="a" d="M280.231,250.328h-8.907a.626.626,0,1,0,0,1.251h8.907a.626.626,0,1,0,0-1.251Zm0,0" transform="translate(990.521 2620.317)"/></g></svg>