<svg xmlns="http://www.w3.org/2000/svg" width="34" height="32" viewBox="0 0 34 32"><defs><style>.a{fill:#fff;}</style></defs><path class="a" d="M102.149,245.31a.667.667,0,0,0,1.238-.5l-.012-.03a.667.667,0,0,0-1.238.5Zm0,0" transform="translate(-95.309 -228.197)"/><path class="a" d="M354.992,339.829l.012.03a.667.667,0,0,0,1.238-.5l-.012-.03a.667.667,0,0,0-1.238.5Zm0,0" transform="translate(-331.372 -316.49)"/><path class="a" d="M33.016,6.569l.839-1.053a.663.663,0,0,0-.192-.991c-1.778-1.011-4.821-.567-6.082-.322a2.31,2.31,0,0,0-.445-.639c-1.531-1.539-4.019-1.851-5.195-1.91a2.071,2.071,0,0,0-4.1.408V30.669h-6V21.679a2.2,2.2,0,0,0,3.073-2.013V14.782A5.26,5.26,0,0,0,11.56,9.888a5.8,5.8,0,1,0-9.914-4.1,5.762,5.762,0,0,0,1.709,4.1A5.259,5.259,0,0,0,0,14.782v4.884a2.2,2.2,0,0,0,3.066,2.016v8.988H1.073a.665.665,0,1,0,0,1.331H24.8a.665.665,0,1,0,0-1.331H21.982V8.749C23.768,7.537,26.722,9.9,26.753,9.92A.668.668,0,0,0,27.842,9.4v-.4a2.717,2.717,0,0,1,3.023-.535,7.107,7.107,0,0,1,1.977,1.068.667.667,0,0,0,1.045-.757ZM2.98,5.79a4.476,4.476,0,1,1,4.476,4.46A4.473,4.473,0,0,1,2.98,5.79ZM2.2,20.528a.865.865,0,0,1-.865-.862V14.782A3.907,3.907,0,0,1,4.72,10.9a5.783,5.783,0,0,0,2.069.645v2.664a.668.668,0,0,0,1.335,0V11.543a5.784,5.784,0,0,0,2.069-.645,3.906,3.906,0,0,1,3.385,3.884v4.884a.865.865,0,0,1-1.731,0,.66.66,0,0,0-.007-.1V16.458a.668.668,0,0,0-1.335,0V20.05H4.4V16.458a.668.668,0,0,0-1.335,0v3.208A.865.865,0,0,1,2.2,20.528Zm5.92,10.141v-6.35a.668.668,0,0,0-1.335,0v6.35H4.4V21.38h6.1v9.289Zm11.057,0V2.062a.734.734,0,0,1,1.469,0V30.669Zm3.983-23.6a3.514,3.514,0,0,0-1.178.194V2.991A6.832,6.832,0,0,1,26.188,4.5a1.283,1.283,0,0,1,.319.893V8.146A6.95,6.95,0,0,0,23.16,7.069ZM31.632,6.7l.3.764c-.193-.086-.4-.167-.609-.239a5.316,5.316,0,0,0-1.7-.3,3.733,3.733,0,0,0-1.784.435V5.506a11.5,11.5,0,0,1,4.407-.114l-.518.65A.664.664,0,0,0,31.632,6.7Zm0,0"/><path class="a" d="M355.707,203.738a.666.666,0,0,0,.668-.665v-6.83a.668.668,0,0,0-1.335,0v6.83A.666.666,0,0,0,355.707,203.738Zm0,0" transform="translate(-331.462 -182.638)"/></svg>